<?xml version="1.0" encoding="UTF-8" standalone="no"?>
<svg
   xmlns:dc="http://purl.org/dc/elements/1.1/"
   xmlns:cc="http://creativecommons.org/ns#"
   xmlns:rdf="http://www.w3.org/1999/02/22-rdf-syntax-ns#"
   xmlns:svg="http://www.w3.org/2000/svg"
   xmlns="http://www.w3.org/2000/svg"
   xmlns:sodipodi="http://sodipodi.sourceforge.net/DTD/sodipodi-0.dtd"
   xmlns:inkscape="http://www.inkscape.org/namespaces/inkscape"
   version="1.1"
   id="Ebene_1"
   x="0px"
   y="0px"
   width="119.199"
   height="113.699"
   viewBox="0 0 119.199 113.699"
   enable-background="new 0 0 149.237 134.5"
   xml:space="preserve"
   sodipodi:docname="bwhpc-logo.svg"
   inkscape:version="1.0.2 (e86c870879, 2021-01-15)"><metadata
   id="metadata43"><rdf:RDF><cc:Work
       rdf:about=""><dc:format>image/svg+xml</dc:format><dc:type
         rdf:resource="http://purl.org/dc/dcmitype/StillImage" /><dc:title></dc:title></cc:Work></rdf:RDF></metadata><defs
   id="defs41" /><sodipodi:namedview
   pagecolor="#ffffff"
   bordercolor="#666666"
   borderopacity="1"
   objecttolerance="10"
   gridtolerance="10"
   guidetolerance="10"
   inkscape:pageopacity="0"
   inkscape:pageshadow="2"
   inkscape:window-width="3440"
   inkscape:window-height="1375"
   id="namedview39"
   showgrid="false"
   inkscape:zoom="5.3159851"
   inkscape:cx="58.2135"
   inkscape:cy="54.252"
   inkscape:window-x="0"
   inkscape:window-y="0"
   inkscape:window-maximized="1"
   inkscape:current-layer="g20" />
<g
   id="g20"
   style="fill:#ffffff"
   transform="translate(-16.405,-12.998)">
	<path
   fill="#060A03"
   d="m 60.959,42.416 h 5.902 c 5.798,0 10.5,-4.7 10.5,-10.499 V 12.998 h -10.5 -1.418 -7 c -5.799,0 -10.499,4.702 -10.499,10.5 v 5.929 h 13.015 z"
   id="path2"
   style="fill:#ffffff" />
	<path
   fill="#060A03"
   d="m 45.822,29.427 v -5.929 c 0,-5.799 -4.701,-10.5 -10.5,-10.5 h -3.067 -5.35 -10.5 v 10.5 1.418 7.001 c 0,5.798 4.701,10.499 10.5,10.499 h 3.067 2.836 V 29.427 Z"
   id="path4"
   style="fill:#ffffff" />
	<path
   fill="#060A03"
   d="m 47.944,57.578 v 5.93 c 0,5.799 4.7,10.499 10.499,10.499 H 77.36 V 55.088 c 0,-5.798 -4.702,-10.5 -10.5,-10.5 H 60.958 V 57.577 H 47.944 Z"
   id="path6"
   style="fill:#ffffff" />
	<path
   fill="#060A03"
   d="m 32.808,44.589 h -5.903 c -5.799,0 -10.5,4.702 -10.5,10.5 v 18.918 h 18.917 c 5.8,0 10.5,-4.7 10.5,-10.499 v -5.93 H 32.808 Z"
   id="path8"
   style="fill:#ffffff" />
	<g
   id="g16"
   style="fill:#ffffff">
		<path
   fill="#060A03"
   d="m 97.045,36.148 c -0.03,0.254 0.033,0.605 0.156,0.666 0.166,0.087 0.708,-0.469 0.952,-0.843 -0.652,-0.064 -1.108,0.177 -1.108,0.177 z m -2.826,2.522 c 0,0 -0.195,-1.891 -0.094,-2.133 0.038,-0.1 3.546,-1.558 4.957,-1.453 0.881,0.067 2.399,0.205 2.894,0.297 0.491,0.089 1.582,-0.608 1.94,-0.621 -0.025,0.096 -0.47,1.104 -0.47,1.104 0.877,0.807 2.083,3.506 2.236,5.252 0.942,0.869 5.847,3.003 14.539,0.155 5.786,-1.897 9.391,0.679 10.363,-2.036 0.226,-0.629 0.363,-1.579 -1.216,-2.435 -1.648,-0.895 -4.319,-0.838 -9.551,1.189 -2.334,0.903 -6.527,2.368 -8.552,2.381 -1.926,0.007 -3.19,-1.13 -3.154,-3.071 0.026,-1.455 2.993,-3.128 3.085,-3.002 0.108,0.141 -2.223,2.183 -0.917,4.021 1.303,1.844 3.801,0.793 4.791,0.519 4.072,-1.111 10.538,-5.074 14.966,-3.094 2.767,1.236 2.819,5.021 -0.067,5.881 0.723,1.542 2.238,5.083 2.295,6.608 0.033,0 3.34,0.755 3.34,0.755 l -0.199,4.79 h -5.616 c 0,0 -0.23,-1.449 2.927,-2.156 -0.018,-0.47 -5.786,-2.002 -7.193,-4.24 -1.957,2.189 -3.378,5.837 -3.354,6.396 l -6.931,0.021 c 0,0 -0.777,-2.126 4.413,-2.349 -0.062,-1.681 0.112,-4.447 0.202,-5.365 -5.262,0.734 -5.065,4.67 -13.514,4.396 -0.062,0.253 -0.08,0.789 -0.08,0.789 0,0 -8.811,2.509 -8.822,2.529 h -8.869 c 0.088,-1.042 0.557,-2.56 5.503,-1.98 0.868,-0.826 3.379,-2.708 3.379,-2.708 0,0 -7.088,-4.464 -7.085,-4.485 -0.843,-1.278 -1.653,-1.274 -3.417,-1.317 -0.211,-3.072 5.137,-2.289 5.221,-0.518 -0.08,0.044 4.829,0.44 4.829,0.44 0,0 0.055,-2.234 0.047,-2.252 -1.249,0.253 -1.476,1.26 -1.803,1.062 -0.403,-0.238 -0.345,-0.621 -0.375,-1.571 0.847,0.803 1.141,0.17 1.305,-0.766 -1.207,0.216 -4.026,0.715 -3.899,-2.042 0.017,0.019 0.109,-0.005 0.112,0.019 0.206,2.293 3.046,1.912 3.512,1.188 0.23,-0.353 -0.454,-1.711 -1.678,-0.198 z"
   id="path10"
   style="fill:#ffffff" />
		<path
   fill="#060A03"
   d="m 97.045,15.333 c -0.03,0.254 0.033,0.601 0.156,0.665 0.166,0.085 0.708,-0.466 0.952,-0.843 -0.652,-0.063 -1.108,0.178 -1.108,0.178 z m -2.826,2.523 c 0,0 -0.195,-1.895 -0.094,-2.134 0.038,-0.099 3.546,-1.561 4.957,-1.454 0.881,0.067 2.399,0.205 2.894,0.296 0.491,0.088 1.582,-0.606 1.94,-0.624 -0.025,0.101 -0.47,1.108 -0.47,1.108 0.877,0.806 2.083,3.505 2.236,5.252 0.942,0.868 5.847,3.003 14.539,0.155 5.786,-1.899 9.391,0.678 10.363,-2.04 0.226,-0.625 0.363,-1.576 -1.216,-2.431 -1.648,-0.894 -4.319,-0.837 -9.551,1.188 -2.334,0.903 -6.527,2.373 -8.552,2.38 -1.926,0.01 -3.19,-1.128 -3.154,-3.067 0.026,-1.459 2.993,-3.131 3.085,-3.008 0.108,0.144 -2.223,2.186 -0.917,4.025 1.303,1.839 3.801,0.788 4.791,0.521 4.072,-1.11 10.538,-5.078 14.966,-3.096 2.767,1.235 2.819,5.021 -0.067,5.883 0.723,1.543 2.238,5.083 2.295,6.606 0.033,0 3.34,0.761 3.34,0.761 l -0.199,4.784 h -5.616 c 0,0 -0.23,-1.448 2.927,-2.156 -0.018,-0.47 -5.786,-1.999 -7.193,-4.24 -1.957,2.188 -3.378,5.838 -3.354,6.396 l -6.931,0.019 c 0,0 -0.777,-2.123 4.413,-2.344 -0.062,-1.682 0.112,-4.449 0.202,-5.369 -5.262,0.734 -5.065,4.673 -13.514,4.398 -0.062,0.253 -0.08,0.789 -0.08,0.789 0,0 -8.811,2.507 -8.822,2.526 h -8.869 c 0.088,-1.038 0.557,-2.559 5.503,-1.981 0.868,-0.824 3.379,-2.707 3.379,-2.707 0,0 -7.088,-4.463 -7.085,-4.485 -0.843,-1.277 -1.653,-1.275 -3.417,-1.315 -0.211,-3.075 5.137,-2.288 5.221,-0.516 -0.08,0.044 4.829,0.439 4.829,0.439 0,0 0.055,-2.235 0.047,-2.254 -1.249,0.252 -1.476,1.26 -1.803,1.065 -0.403,-0.24 -0.345,-0.623 -0.375,-1.574 0.847,0.806 1.141,0.171 1.305,-0.767 -1.207,0.217 -4.026,0.719 -3.899,-2.041 0.017,0.017 0.109,-0.005 0.112,0.018 0.206,2.297 3.046,1.912 3.512,1.189 0.23,-0.352 -0.454,-1.709 -1.678,-0.195 z"
   id="path12"
   style="fill:#ffffff" />
		<path
   fill="#060A03"
   d="m 97.045,56.83 c -0.03,0.253 0.033,0.604 0.156,0.667 0.166,0.085 0.708,-0.469 0.952,-0.843 -0.652,-0.064 -1.108,0.176 -1.108,0.176 z m -2.826,2.522 c 0,0 -0.195,-1.892 -0.094,-2.134 0.038,-0.096 3.546,-1.558 4.957,-1.451 0.881,0.067 2.399,0.204 2.894,0.296 0.491,0.088 1.582,-0.607 1.94,-0.624 -0.025,0.101 -0.47,1.106 -0.47,1.106 0.877,0.808 2.083,3.507 2.236,5.251 0.942,0.871 5.847,3.002 14.539,0.155 5.786,-1.897 9.391,0.678 10.363,-2.036 0.226,-0.625 0.363,-1.575 -1.216,-2.434 -1.648,-0.892 -4.319,-0.835 -9.551,1.191 -2.334,0.903 -6.527,2.369 -8.552,2.377 -1.926,0.007 -3.19,-1.13 -3.154,-3.068 0.026,-1.455 2.993,-3.129 3.085,-3.005 0.108,0.146 -2.223,2.187 -0.917,4.024 1.303,1.841 3.801,0.792 4.791,0.521 4.072,-1.11 10.538,-5.074 14.966,-3.095 2.767,1.237 2.819,5.021 -0.067,5.881 0.723,1.542 2.238,5.085 2.295,6.608 0.033,0 3.34,0.759 3.34,0.759 l -0.199,4.787 h -5.616 c 0,0 -0.23,-1.451 2.927,-2.158 -0.018,-0.469 -5.786,-2 -7.193,-4.239 -1.957,2.191 -3.378,5.837 -3.354,6.397 l -6.931,0.02 c 0,0 -0.777,-2.125 4.413,-2.348 -0.062,-1.68 0.112,-4.447 0.202,-5.367 -5.262,0.734 -5.065,4.671 -13.514,4.396 -0.062,0.254 -0.08,0.79 -0.08,0.79 0,0 -8.811,2.51 -8.822,2.53 h -8.869 c 0.088,-1.042 0.557,-2.56 5.503,-1.98 0.868,-0.828 3.379,-2.708 3.379,-2.708 0,0 -7.088,-4.466 -7.085,-4.487 -0.843,-1.276 -1.653,-1.276 -3.417,-1.317 -0.211,-3.072 5.137,-2.29 5.221,-0.517 -0.08,0.043 4.829,0.439 4.829,0.439 0,0 0.055,-2.232 0.047,-2.252 -1.249,0.253 -1.476,1.263 -1.803,1.065 -0.403,-0.242 -0.345,-0.624 -0.375,-1.574 0.847,0.804 1.141,0.172 1.305,-0.767 -1.207,0.217 -4.026,0.718 -3.899,-2.04 0.017,0.019 0.109,-0.003 0.112,0.02 0.206,2.292 3.046,1.91 3.512,1.188 0.23,-0.357 -0.454,-1.715 -1.678,-0.2 z"
   id="path14"
   style="fill:#ffffff" />
	</g>
	<rect
   x="33.877998"
   y="30.499001"
   fill="#060A03"
   width="26.01"
   height="26.009001"
   id="rect18"
   style="fill:#ffffff" />
</g>
<g
   id="g26"
   style="fill:#ffffff"
   transform="translate(-16.405,-12.998)">
	<path
   d="m 27.374,97.426 c -1.584,0 -3.048,0.476 -4.36,1.418 v -9.385 c 0,-0.339 -0.237,-0.576 -0.576,-0.576 h -0.955 c -0.094,0 -0.179,0.02 -0.224,0.037 l -4.11,0.659 c -0.329,0 -0.56,0.237 -0.56,0.576 v 0.76 c 0,0.349 0.24,0.594 0.545,0.594 0,0 0.001,0 0.002,0 l 2.381,0.234 v 20.228 l 0.155,0.125 c 0.557,0.445 1.333,0.797 2.308,1.048 1.111,0.288 2.136,0.433 3.047,0.433 2.514,0 4.593,-0.877 6.179,-2.611 1.521,-1.678 2.293,-3.807 2.293,-6.327 0,-1.929 -0.53,-3.598 -1.576,-4.962 -1.143,-1.493 -2.674,-2.251 -4.549,-2.251 z m -2.088,13.835 c -1.069,0 -1.833,-0.172 -2.273,-0.513 v -9.472 c 0.999,-0.546 1.986,-0.823 2.937,-0.823 1.309,0 2.256,0.512 2.9,1.566 0.55,0.889 0.829,2.085 0.829,3.555 0,0.83 -0.099,1.605 -0.294,2.304 -0.639,2.277 -1.98,3.383 -4.099,3.383 z"
   id="path22"
   style="fill:#ffffff" />
	<path
   d="m 59.312,97.898 h -5.321 c -0.338,0 -0.576,0.237 -0.576,0.575 v 0.838 c 0,0.315 0.226,0.544 0.493,0.544 10e-4,0 0.003,0 0.004,0 l 1.386,0.155 -3.135,7.766 -3.168,-7.765 1.338,-0.154 c 0.325,0 0.561,-0.229 0.561,-0.546 v -0.838 c 0,-0.338 -0.244,-0.575 -0.594,-0.575 h -6.653 c -0.338,0 -0.575,0.237 -0.575,0.575 v 0.838 c 0,0.316 0.215,0.547 0.494,0.543 l 1.603,0.204 0.737,1.83 c 10e-4,10e-4 10e-4,10e-4 0.002,0.003 -0.005,0.011 -0.01,0.023 -0.015,0.035 l -2.661,5.903 -3.215,-7.818 1.338,-0.154 c 0.322,0 0.555,-0.229 0.555,-0.546 v -0.585 l -0.024,-0.437 c -0.071,-0.256 -0.291,-0.424 -0.583,-0.424 l -6.878,0.033 c -0.337,0 -0.571,0.237 -0.571,0.575 v 0.838 c 0,0.314 0.225,0.544 0.488,0.544 0.002,0 0.003,0 0.005,0 l 1.774,0.207 5.342,12.995 c 0.081,0.231 0.279,0.375 0.52,0.375 h 0.76 c 0.262,0 0.47,-0.15 0.524,-0.344 l 3.749,-8.479 3.457,8.439 c 0.076,0.233 0.281,0.383 0.524,0.383 h 0.841 c 0.24,0 0.439,-0.144 0.513,-0.354 l 5.335,-13.042 1.625,-0.177 c 0.35,0 0.595,-0.237 0.595,-0.579 v -0.806 c 10e-4,-0.337 -0.244,-0.575 -0.594,-0.575 z"
   id="path24"
   style="fill:#ffffff" />
</g>
<g
   id="g34"
   style="fill:#ffffff"
   transform="translate(-16.405,-12.998)">
	<path
   d="m 72.068,90.559 c 0,-0.107 0.058,-0.159 0.163,-0.159 h 8.688 c 0.11,0 0.162,0.052 0.162,0.159 v 0.857 c 0,0.11 -0.052,0.162 -0.162,0.162 l -2.65,0.278 c -0.11,0 -0.166,0.052 -0.166,0.159 v 8.025 c 0,0.065 0.017,0.1 0.049,0.1 h 10.649 c 0.021,-0.026 0.03,-0.058 0.03,-0.1 v -8.025 c 0,-0.107 -0.052,-0.159 -0.16,-0.159 l -2.654,-0.278 c -0.106,0 -0.162,-0.052 -0.162,-0.162 v -0.857 c 0,-0.107 0.055,-0.159 0.162,-0.159 h 8.69 c 0.107,0 0.159,0.052 0.159,0.159 v 0.857 c 0,0.11 -0.052,0.162 -0.159,0.162 l -2.833,0.278 c -0.107,0 -0.162,0.052 -0.162,0.159 v 19.063 c 0,0.106 0.055,0.162 0.162,0.162 l 2.833,0.259 c 0.107,0 0.159,0.061 0.159,0.178 v 0.857 c 0,0.106 -0.052,0.162 -0.159,0.162 h -8.69 c -0.106,0 -0.162,-0.055 -0.162,-0.162 v -0.857 c 0,-0.117 0.055,-0.178 0.162,-0.178 l 2.654,-0.259 c 0.108,0 0.16,-0.055 0.16,-0.162 v -9.255 c 0,-0.11 -0.052,-0.162 -0.16,-0.162 H 78.27 c -0.11,0 -0.166,0.052 -0.166,0.162 v 9.255 c 0,0.106 0.056,0.162 0.166,0.162 l 2.65,0.259 c 0.11,0 0.162,0.061 0.162,0.178 v 0.857 c 0,0.106 -0.052,0.162 -0.162,0.162 h -8.688 c -0.105,0 -0.163,-0.055 -0.163,-0.162 v -0.857 c 0,-0.117 0.058,-0.178 0.163,-0.178 l 2.813,-0.259 c 0.11,0 0.165,-0.055 0.165,-0.162 V 92.014 c 0,-0.107 -0.055,-0.159 -0.165,-0.159 l -2.813,-0.278 c -0.105,0 -0.163,-0.052 -0.163,-0.162 v -0.856 z"
   id="path28"
   style="fill:#ffffff" />
	<path
   d="m 105.774,90.4 c 2.112,0 3.71,0.178 4.791,0.546 2.725,0.928 4.09,2.853 4.09,5.781 0,1.951 -0.875,3.545 -2.622,4.787 -1.553,1.087 -3.353,1.657 -5.404,1.702 l -3.203,-0.57 v 8.431 c 0,0.097 0.052,0.152 0.162,0.162 l 3.138,0.259 c 0.12,0.01 0.178,0.071 0.178,0.178 v 0.857 c 0,0.106 -0.058,0.162 -0.178,0.162 h -9.239 c -0.11,0 -0.162,-0.055 -0.162,-0.162 v -0.857 c 0,-0.117 0.052,-0.178 0.162,-0.178 l 2.816,-0.259 c 0.108,0 0.16,-0.055 0.16,-0.162 V 92.014 c 0,-0.107 -0.052,-0.159 -0.16,-0.159 l -2.816,-0.278 c -0.11,0 -0.162,-0.052 -0.162,-0.162 v -0.857 c 0,-0.107 0.052,-0.159 0.162,-0.159 h 8.287 z m -2.185,1.52 c -0.11,0 -0.162,0.052 -0.162,0.162 v 9.417 c 0,0.107 0.052,0.162 0.162,0.162 h 1.927 c 3.901,0 5.853,-1.714 5.853,-5.126 0,-1.663 -0.608,-2.876 -1.826,-3.63 -1.056,-0.657 -2.504,-0.983 -4.336,-0.983 h -1.618 z"
   id="path30"
   style="fill:#ffffff" />
	<path
   d="m 129.527,89.896 c 0.4,0 0.849,0.026 1.36,0.081 0.505,0.055 1.018,0.12 1.536,0.204 0.519,0.082 1.028,0.169 1.526,0.263 0.503,0.101 0.938,0.181 1.305,0.246 0.12,0.019 0.178,0.078 0.178,0.162 v 5.017 c 0,0.107 -0.058,0.162 -0.178,0.162 h -1.277 c -0.057,0 -0.097,-0.013 -0.129,-0.029 -0.036,-0.026 -0.048,-0.058 -0.048,-0.101 l -0.665,-3.723 c 0,-0.062 -0.044,-0.116 -0.128,-0.162 -0.194,-0.042 -0.444,-0.1 -0.744,-0.175 -0.302,-0.078 -0.614,-0.148 -0.931,-0.22 -0.319,-0.071 -0.647,-0.126 -0.985,-0.171 -0.342,-0.045 -0.67,-0.065 -0.98,-0.065 -1.479,0 -2.79,0.227 -3.94,0.679 -1.15,0.457 -2.12,1.097 -2.907,1.925 -0.786,0.832 -1.384,1.831 -1.796,2.989 -0.406,1.161 -0.611,2.436 -0.611,3.827 0,1.456 0.211,2.837 0.645,4.141 0.431,1.303 1.045,2.452 1.844,3.445 0.799,0.997 1.763,1.779 2.89,2.348 1.127,0.57 2.375,0.857 3.746,0.857 0.236,0 0.529,-0.01 0.873,-0.032 0.345,-0.022 0.688,-0.055 1.029,-0.097 0.338,-0.042 0.676,-0.097 1.011,-0.162 0.332,-0.064 0.618,-0.162 0.857,-0.292 0.084,-0.052 0.128,-0.11 0.128,-0.178 l 0.665,-3.739 c 0,-0.02 0.013,-0.049 0.048,-0.078 0.032,-0.033 0.072,-0.049 0.129,-0.049 h 1.277 c 0.12,0 0.178,0.055 0.178,0.162 v 4.998 c 0,0.065 -0.058,0.12 -0.178,0.162 -0.367,0.101 -0.77,0.197 -1.215,0.294 -0.441,0.094 -0.923,0.184 -1.445,0.271 -0.526,0.087 -1.09,0.159 -1.695,0.22 -0.598,0.058 -1.268,0.088 -2.004,0.088 -1.207,0 -2.342,-0.13 -3.405,-0.396 -1.063,-0.262 -2.042,-0.65 -2.939,-1.148 -0.894,-0.501 -1.691,-1.1 -2.387,-1.795 -0.695,-0.695 -1.279,-1.469 -1.755,-2.316 -0.474,-0.848 -0.845,-1.776 -1.11,-2.782 -0.263,-1.009 -0.396,-2.054 -0.396,-3.131 0,-1.242 0.155,-2.391 0.465,-3.445 0.304,-1.058 0.744,-2.025 1.31,-2.901 0.563,-0.87 1.231,-1.64 2.004,-2.303 0.77,-0.664 1.621,-1.22 2.548,-1.676 0.928,-0.453 1.931,-0.796 3.003,-1.025 1.073,-0.234 2.171,-0.35 3.293,-0.35 z"
   id="path32"
   style="fill:#ffffff" />
</g>
<rect
   x="48.717003"
   y="65.743996"
   width="1.732"
   height="47.955002"
   id="rect36"
   style="fill:#ffffff" />
</svg>
