<?xml version="1.0" encoding="UTF-8" standalone="no"?>
<svg
   xmlns:dc="http://purl.org/dc/elements/1.1/"
   xmlns:cc="http://creativecommons.org/ns#"
   xmlns:rdf="http://www.w3.org/1999/02/22-rdf-syntax-ns#"
   xmlns:svg="http://www.w3.org/2000/svg"
   xmlns="http://www.w3.org/2000/svg"
   xmlns:sodipodi="http://sodipodi.sourceforge.net/DTD/sodipodi-0.dtd"
   xmlns:inkscape="http://www.inkscape.org/namespaces/inkscape"
   id="Ebene_3"
   data-name="Ebene 3"
   width="341.3623"
   height="192.88841"
   viewBox="0 0 341.3623 192.88841"
   version="1.1"
   sodipodi:docname="nemo-gold.svg"
   inkscape:version="1.0.2 (e86c870879, 2021-01-15)">
  <metadata
     id="metadata13">
    <rdf:RDF>
      <cc:Work
         rdf:about="">
        <dc:format>image/svg+xml</dc:format>
        <dc:type
           rdf:resource="http://purl.org/dc/dcmitype/StillImage" />
      </cc:Work>
    </rdf:RDF>
  </metadata>
  <defs
     id="defs11" />
  <sodipodi:namedview
     pagecolor="#ffffff"
     bordercolor="#666666"
     borderopacity="1"
     objecttolerance="10"
     gridtolerance="10"
     guidetolerance="10"
     inkscape:pageopacity="0"
     inkscape:pageshadow="2"
     inkscape:window-width="2081"
     inkscape:window-height="1115"
     id="namedview9"
     showgrid="false"
     inkscape:zoom="2.675"
     inkscape:cx="93.479834"
     inkscape:cy="97.088167"
     inkscape:window-x="0"
     inkscape:window-y="0"
     inkscape:window-maximized="0"
     inkscape:current-layer="Ebene_3" />
  <title
     id="title2">nemo_3.0</title>
  <path
     d="m 52.456096,30.728167 c 28.47,21 67.390004,18.7 98.620004,5.72 9.52,-4 18.27,-9.23 27.55,-13.67 17.66,-8.45 36.8,-12.09 56.33,-11.7 45.5,0.9 109.88,28.22 106.26,83.16 -3.62,54.940003 -72.7,85.140003 -119.54,94.350003 -57,11.23 -121,0.13 -171.180004,-29.38 -31,-18.24 -55.0000002,-47 -49.78000025,-85.470003 a 79,79 0 0 1 38.15000025,-57.05 c 18.99,-11.2599997 52.81,-20.5099997 73.900004,-15.0999997 -43.910004,0.36 -94.530004,14.9999997 -105.4600042,63.6999997 -6.29,28 5.7000002,55.000003 27.6000002,72.110003 39.37,30.76 98.000004,37.75 146.410004,33.44 35.26,-3.13 70.4,-13.28 101,-30.34 23.18,-12.91 48.86,-34.38 43.5,-64.250003 -7.29,-40.65 -57.3,-63 -94.36,-56.77 -30.16,5.08 -54.78,23.59 -83.68,32 a 114.7,114.7 0 0 1 -42,4.55 91.24,91.24 0 0 1 -30.470004,-7.94 c -6.4,-3.03 -21.89,-10.59 -22.85,-17.36 z m 8.85,37.43 h -20.31 v 57.840003 h 17.21 l -0.11,-19.24 c 0,-3.74 -0.43,-11.120003 -0.75,-15.930003 h 0.21 a 95.65,95.65 0 0 0 7.7,13.900003 l 14,21.27 h 20.21 V 68.158167 h -17.32 l 0.21,19.24 c 0,3.74 0.43,11.12 0.75,15.930003 h -0.21 a 105.64,105.64 0 0 0 -7.7,-13.900003 z M 158.0561,112.95817 h -26.2 v -9.94 h 21.6 V 90.078167 h -21.6 v -8.87 h 25.66 v -13 h -44.84 v 57.840003 h 45.33 v -13 z m 63.71,13 h 17.53 V 68.158167 h -23.52 l -11.33,27.37 h -0.21 l -11.45,-27.37 h -23.62 v 57.840003 h 17.31 l -0.11,-24.05 c 0,-4.000003 -0.54,-12.000003 -0.86,-15.610003 h 0.21 a 106.74,106.74 0 0 0 4.6,13.58 l 7.06,15.930003 h 13.36 l 7.06,-15.930003 a 106.69,106.69 0 0 0 4.6,-13.58 h 0.21 c -0.32,3.63 -0.75,11.65 -0.75,15.610003 z m 67.91,-13.54 h -39.1 v 13.58 h 39.1 z m 0,-25.550003 c 0,6.63 -1.92,11.44 -4.92,14.330003 -3.53,3.31 -8.66,4.49 -14.65,4.49 -5.99,0 -11.23,-1.18 -14.65,-4.49 -3.1,-2.890003 -4.92,-7.700003 -4.92,-14.330003 0,-6.63 1.82,-11.33 4.92,-14.22 3.42,-3.31 8.66,-4.49 14.65,-4.49 5.99,0 11.12,1.18 14.65,4.49 3.03,2.89 4.92,7.59 4.92,14.22 z m -14.65,0 c 0,-4.49 -0.43,-6.95 -1.6,-8.23 a 4.43,4.43 0 0 0 -3.31,-1.28 4.68,4.68 0 0 0 -3.44,1.23 c -1.18,1.28 -1.6,3.74 -1.6,8.23 0,4.49 0.43,7.06 1.6,8.34 a 4.68,4.68 0 0 0 3.42,1.28 4.43,4.43 0 0 0 3.31,-1.28 c 1.27,-1.24 1.66,-3.91 1.66,-8.29 z"
     style="fill:#ffffff;fill-opacity:1"
     id="path6" />
</svg>
