<?xml version="1.0" encoding="UTF-8" standalone="no"?>
<svg
   xmlns:dc="http://purl.org/dc/elements/1.1/"
   xmlns:cc="http://creativecommons.org/ns#"
   xmlns:rdf="http://www.w3.org/1999/02/22-rdf-syntax-ns#"
   xmlns:svg="http://www.w3.org/2000/svg"
   xmlns="http://www.w3.org/2000/svg"
   xmlns:sodipodi="http://sodipodi.sourceforge.net/DTD/sodipodi-0.dtd"
   xmlns:inkscape="http://www.inkscape.org/namespaces/inkscape"
   version="1.0"
   width="24.350134mm"
   height="33.875134mm"
   id="svg29"
   sodipodi:docname="uni-logo.svg"
   inkscape:version="1.0.2 (e86c870879, 2021-01-15)">
  <metadata
     id="metadata33">
    <rdf:RDF>
      <cc:Work
         rdf:about="">
        <dc:format>image/svg+xml</dc:format>
        <dc:type
           rdf:resource="http://purl.org/dc/dcmitype/StillImage" />
        <dc:title></dc:title>
      </cc:Work>
    </rdf:RDF>
  </metadata>
  <sodipodi:namedview
     pagecolor="#ffffff"
     bordercolor="#666666"
     borderopacity="1"
     objecttolerance="10"
     gridtolerance="10"
     guidetolerance="10"
     inkscape:pageopacity="0"
     inkscape:pageshadow="2"
     inkscape:window-width="3440"
     inkscape:window-height="1375"
     id="namedview31"
     showgrid="false"
     inkscape:zoom="5.5845413"
     inkscape:cx="46.016001"
     inkscape:cy="64.016"
     inkscape:window-x="0"
     inkscape:window-y="0"
     inkscape:window-maximized="1"
     inkscape:current-layer="svg29" />
  <defs
     id="defs15">
    <clipPath
       clipPathUnits="userSpaceOnUse"
       id="clipEmfPath1">
      <path
         d="  M 1,128.33333   L 91,128.33333   L 91,-0.33333333   L 1,-0.33333333   L 1,128.33333 "
         id="path2" />
    </clipPath>
    <clipPath
       clipPathUnits="userSpaceOnUse"
       id="clipEmfPath2">
      <path
         d="M 1,-0.33398438 V 128.33398 H 91 V -0.33398438 Z"
         id="path5" />
    </clipPath>
    <clipPath
       clipPathUnits="userSpaceOnUse"
       id="clipEmfPath3">
      <path
         d="M 70.666016,64 V 93 H 91 V 64 Z"
         id="path8" />
    </clipPath>
    <clipPath
       clipPathUnits="userSpaceOnUse"
       id="clipEmfPath4">
      <path
         d="M 1,64 V 93 H 21.333984 V 64 Z"
         id="path11" />
    </clipPath>
    <pattern
       id="EMFhbasepattern"
       patternUnits="userSpaceOnUse"
       width="6"
       height="6"
       x="0"
       y="0" />
  </defs>
  <path
     style="fill:#ffffff;fill-rule:nonzero;fill-opacity:1;stroke:none"
     clip-path="url(#clipEmfPath2)"
     d="  M 66,-0.33333333   C 57,-0.33333333 57,-0.33333333 57,-0.33333333   C 57,4.3333333 57,4.3333333 57,4.3333333   C 63,4.3333333 63,4.3333333 63,4.3333333   C 63.333333,5 63.333333,6 63.333333,6.6666667   C 63.333333,9.6666667 61.333333,12 57.666667,12   C 54,12 52,9.3333333 52,6   C 52,4.3333333 52.333333,2.6666667 53,1   C 49,0 49,0 49,0   C 48.333333,2 48,4.3333333 48,6.3333333   C 48,13 52.333333,17 58,17   C 64.333333,17 67.666667,12.666667 67.666667,7   C 67.666667,4.3333333 67,2 66,-0.33333333   M 54,23.333333   C 55.666667,23.333333 56.666667,24.666667 56.666667,26.333333   C 56.666667,27 56.666667,27.666667 56.666667,28   C 51.666667,28 51.666667,28 51.666667,28   C 51.666667,27.666667 51.666667,27 51.666667,26.666667   C 51.666667,24.666667 52.666667,23.333333 54,23.333333   M 67.333333,17.333333   C 61,21.666667 61,21.666667 61,21.666667   C 60.333333,22.333333 59.666667,22.666667 59,23   C 58.333333,20.333333 56.666667,18.666667 53.666667,18.666667   C 50,18.666667 48.333333,21.333333 48.333333,26   C 48.333333,28.333333 48.333333,31.333333 48.333333,32.666667   C 67.333333,32.666667 67.333333,32.666667 67.333333,32.666667   C 67.333333,28 67.333333,28 67.333333,28   C 59.666667,28 59.666667,28 59.666667,28   C 59.666667,28 59.666667,28 59.666667,28   C 67.333333,23.333333 67.333333,23.333333 67.333333,23.333333   z  M 60,36.666667   C 48.333333,36.666667 48.333333,36.666667 48.333333,36.666667   C 48.333333,41.333333 48.333333,41.333333 48.333333,41.333333   C 59.333333,41.333333 59.333333,41.333333 59.333333,41.333333   C 62,41.333333 63.666667,42.333333 63.666667,45.333333   C 63.666667,48 62.333333,49.333333 59.666667,49.333333   C 48.333333,49.333333 48.333333,49.333333 48.333333,49.333333   C 48.333333,54 48.333333,54 48.333333,54   C 60.666667,54 60.666667,54 60.666667,54   C 65,54 67.666667,51.333333 67.666667,45.666667   C 67.666667,39.333333 64,36.666667 60,36.666667   M 61.333333,62   C 63,62 64,63 64,65.333333   C 64,66.333333 64,67 63.666667,67.333333   C 59,67.333333 59,67.333333 59,67.333333   C 59,67 59,66.333333 59,66   C 59,63.333333 59.666667,62 61.333333,62   M 53.666667,62.333333   C 55.333333,62.333333 56,64 56,66   C 56,66.333333 56,67 56,67.333333   C 51.333333,67.333333 51.333333,67.333333 51.333333,67.333333   C 51.333333,67 51.333333,66 51.333333,65.333333   C 51.333333,63 52.333333,62.333333 53.666667,62.333333   M 61.333333,57   C 59.333333,57 57.666667,58.333333 57,60.333333   C 57,60.333333 57,60.333333 57,60.333333   C 56.333333,58.333333 54.666667,57.333333 53,57.333333   C 50,57.333333 48.333333,59.333333 48.333333,64.666667   C 48.333333,67 48.333333,70.333333 48.333333,72   C 67.333333,72 67.333333,72 67.333333,72   C 67.333333,69.333333 67.333333,66.666667 67.333333,65.333333   C 67.333333,59 64,57 61.333333,57   M 67.333333,76   C 48.333333,76 48.333333,76 48.333333,76   C 48.333333,81 48.333333,81 48.333333,81   C 67.333333,81 67.333333,81 67.333333,81   z  M 67.333333,84.333333   C 63.333333,84.333333 63.333333,84.333333 63.333333,84.333333   C 63.333333,91.333333 63.333333,91.333333 63.333333,91.333333   C 59.333333,91.333333 59.333333,91.333333 59.333333,91.333333   C 59.333333,84.666667 59.333333,84.666667 59.333333,84.666667   C 55.666667,84.666667 55.666667,84.666667 55.666667,84.666667   C 55.666667,91.333333 55.666667,91.333333 55.666667,91.333333   C 52,91.333333 52,91.333333 52,91.333333   C 52,84.333333 52,84.333333 52,84.333333   C 48.333333,84.333333 48.333333,84.333333 48.333333,84.333333   C 48.333333,96 48.333333,96 48.333333,96   C 67.333333,96 67.333333,96 67.333333,96   z  M 54,104.33333   C 55.666667,104.33333 56.666667,105.33333 56.666667,107.33333   C 56.666667,107.66667 56.666667,108.33333 56.666667,108.66667   C 51.666667,108.66667 51.666667,108.66667 51.666667,108.66667   C 51.666667,108.33333 51.666667,108 51.666667,107.33333   C 51.666667,105.33333 52.666667,104.33333 54,104.33333   M 67.333333,98.333333   C 61,102.33333 61,102.33333 61,102.33333   C 60.333333,103 59.666667,103.66667 59,104   C 58.333333,101 56.666667,99.333333 53.666667,99.333333   C 50,99.333333 48.333333,102 48.333333,106.66667   C 48.333333,109 48.333333,112 48.333333,113.66667   C 67.333333,113.66667 67.333333,113.66667 67.333333,113.66667   C 67.333333,108.66667 67.333333,108.66667 67.333333,108.66667   C 59.666667,108.66667 59.666667,108.66667 59.666667,108.66667   C 59.666667,108.66667 59.666667,108.66667 59.666667,108.66667   C 67.333333,104 67.333333,104 67.333333,104   z  M 52,116.33333   C 48.333333,116.33333 48.333333,116.33333 48.333333,116.33333   C 48.333333,127.66667 48.333333,127.66667 48.333333,127.66667   C 67.333333,127.66667 67.333333,127.66667 67.333333,127.66667   C 67.333333,123 67.333333,123 67.333333,123   C 59.666667,123 59.666667,123 59.666667,123   C 59.666667,116.66667 59.666667,116.66667 59.666667,116.66667   C 56,116.66667 56,116.66667 56,116.66667   C 56,123 56,123 56,123   C 52,123 52,123 52,123   z "
     id="path17" />
  <path
     style="fill:#ffffff;fill-rule:nonzero;fill-opacity:1;stroke:none"
     clip-path="url(#clipEmfPath2)"
     d="  M 43.666667,76   C 24.666667,76 24.666667,76 24.666667,76   C 24.666667,81 24.666667,81 24.666667,81   C 43.666667,81 43.666667,81 43.666667,81   z  M 43.666667,87   C 24.666667,87 24.666667,87 24.666667,87   C 24.666667,91.666667 24.666667,91.666667 24.666667,91.666667   C 32.666667,91.666667 32.666667,91.666667 32.666667,91.666667   C 34.666667,91.666667 36,91.666667 37.333333,91.666667   C 37.333333,91.666667 37.333333,91.666667 37.333333,91.666667   C 36,92.333333 34.666667,93 33.666667,93.666667   C 24.666667,99 24.666667,99 24.666667,99   C 24.666667,105.33333 24.666667,105.33333 24.666667,105.33333   C 43.666667,105.33333 43.666667,105.33333 43.666667,105.33333   C 43.666667,101 43.666667,101 43.666667,101   C 34.333333,101 34.333333,101 34.333333,101   C 32.666667,101 31.666667,101 31,101   C 31,101 31,101 31,101   C 32,100.66667 33.333333,100 34.333333,99.333333   C 43.666667,93.333333 43.666667,93.333333 43.666667,93.333333   z  M 36.333333,111   C 24.666667,111 24.666667,111 24.666667,111   C 24.666667,115.33333 24.666667,115.33333 24.666667,115.33333   C 35.666667,115.33333 35.666667,115.33333 35.666667,115.33333   C 38.333333,115.33333 40,116.66667 40,119.66667   C 40,122.33333 38.666667,123.66667 36,123.66667   C 24.666667,123.66667 24.666667,123.66667 24.666667,123.66667   C 24.666667,128.33333 24.666667,128.33333 24.666667,128.33333   C 37,128.33333 37,128.33333 37,128.33333   C 41.333333,128.33333 44,125.66667 44,119.66667   C 44,113.66667 40.666667,111 36.333333,111  "
     id="path19" />
  <path
     style="fill:#c1002a;fill-rule:nonzero;fill-opacity:1;stroke:none;"
     clip-path="url(#clipEmfPath3)"
     d="  M 91,76   L 72,76   L 72,81   L 91,81   L 91,76  z   "
     id="path21" />
  <path
     style="fill:none;stroke:none;"
     clip-path="url(#clipEmfPath3)"
     d="  M 91,76   L 72,76   L 72,81   L 91,81   L 91,76    "
     id="path23" />
  <path
     style="fill:#c1002a;fill-rule:nonzero;fill-opacity:1;stroke:none;"
     clip-path="url(#clipEmfPath4)"
     d="  M 20,76   L 1,76   L 1,81   L 20,81   L 20,76  z   "
     id="path25" />
  <path
     style="fill:none;stroke:none;"
     clip-path="url(#clipEmfPath4)"
     d="  M 20,76   L 1,76   L 1,81   L 20,81   L 20,76    "
     id="path27" />
</svg>
